<svg width="24" height="24" viewBox="0 0 24 24" fill="none" xmlns="http://www.w3.org/2000/svg">
<path d="M9.7273 2H3.36365C2.59093 2 2.00002 2.59091 2.00002 3.36364V21.5455C2.00002 21.7728 2.22729 22 2.45456 22H4.27275C4.54547 22 4.72729 21.8182 4.72729 21.5455V18.8182C4.72729 18.5455 4.90911 18.3637 5.18184 18.3637H7.90912C8.18184 18.3637 8.36366 18.5455 8.36366 18.8182V21.5455C8.36366 21.8182 8.54548 22 8.81821 22H10.1818C10.6818 22 11.0909 21.5909 11.0909 21.0909V3.36364C11.0909 2.59091 10.5 2 9.7273 2ZM5.63639 16.3182C5.63639 16.4546 5.54548 16.5455 5.40911 16.5455H4.04547C3.90911 16.5455 3.8182 16.4546 3.8182 16.3182V14.0455C3.8182 13.9091 3.90911 13.8182 4.04547 13.8182H5.40911C5.54548 13.8182 5.63639 13.9091 5.63639 14.0455V16.3182ZM5.63639 11.7727C5.63639 11.9091 5.54548 12 5.40911 12H4.04547C3.90911 12 3.8182 11.9091 3.8182 11.7727V9.50001C3.8182 9.36365 3.90911 9.27274 4.04547 9.27274H5.40911C5.54548 9.27274 5.63639 9.36365 5.63639 9.50001V11.7727ZM5.63639 7.22728C5.63639 7.36365 5.54548 7.45456 5.40911 7.45456H4.04547C3.90911 7.45456 3.8182 7.36365 3.8182 7.22728V4.95455C3.8182 4.81819 3.90911 4.72728 4.04547 4.72728H5.40911C5.54548 4.72728 5.63639 4.81819 5.63639 4.95455V7.22728ZM9.27276 16.3182C9.27276 16.4546 9.18185 16.5455 9.04548 16.5455H7.68184C7.54548 16.5455 7.45457 16.4546 7.45457 16.3182V14.0455C7.45457 13.9091 7.54548 13.8182 7.68184 13.8182H9.04548C9.18185 13.8182 9.27276 13.9091 9.27276 14.0455V16.3182ZM9.27276 11.7727C9.27276 11.9091 9.18185 12 9.04548 12H7.68184C7.54548 12 7.45457 11.9091 7.45457 11.7727V9.50001C7.45457 9.36365 7.54548 9.27274 7.68184 9.27274H9.04548C9.18185 9.27274 9.27276 9.36365 9.27276 9.50001V11.7727ZM9.27276 7.22728C9.27276 7.36365 9.18185 7.45456 9.04548 7.45456H7.68184C7.54548 7.45456 7.45457 7.36365 7.45457 7.22728V4.95455C7.45457 4.81819 7.54548 4.72728 7.68184 4.72728H9.04548C9.18185 4.72728 9.27276 4.81819 9.27276 4.95455V7.22728Z" fill="#666766"/>
<path d="M20.6364 6.54543H14.2727C13.5 6.54543 12.9091 7.13634 12.9091 7.90906V21.5455C12.9091 21.7727 13.1364 22 13.3636 22H15.1818C15.4545 22 15.6364 21.8182 15.6364 21.5455V18.8182C15.6364 18.5454 15.8182 18.3636 16.0909 18.3636H18.8182C19.0909 18.3636 19.2727 18.5454 19.2727 18.8182V21.5455C19.2727 21.8182 19.4546 22 19.7273 22H21.0909C21.5909 22 22 21.5909 22 21.0909V7.90906C22 7.13634 21.4091 6.54543 20.6364 6.54543ZM16.5455 16.3182C16.5455 16.4545 16.4545 16.5454 16.3182 16.5454H14.9545C14.8182 16.5454 14.7273 16.4545 14.7273 16.3182V14.0454C14.7273 13.9091 14.8182 13.8182 14.9545 13.8182H16.3182C16.4545 13.8182 16.5455 13.9091 16.5455 14.0454V16.3182ZM16.5455 11.7727C16.5455 11.9091 16.4545 12 16.3182 12H14.9545C14.8182 12 14.7273 11.9091 14.7273 11.7727V9.49998C14.7273 9.36361 14.8182 9.2727 14.9545 9.2727H16.3182C16.4545 9.2727 16.5455 9.36361 16.5455 9.49998V11.7727ZM20.1818 16.3182C20.1818 16.4545 20.0909 16.5454 19.9546 16.5454H18.5909C18.4546 16.5454 18.3636 16.4545 18.3636 16.3182V14.0454C18.3636 13.9091 18.4546 13.8182 18.5909 13.8182H19.9546C20.0909 13.8182 20.1818 13.9091 20.1818 14.0454V16.3182ZM20.1818 11.7727C20.1818 11.9091 20.0909 12 19.9546 12H18.5909C18.4546 12 18.3636 11.9091 18.3636 11.7727V9.49998C18.3636 9.36361 18.4546 9.2727 18.5909 9.2727H19.9546C20.0909 9.2727 20.1818 9.36361 20.1818 9.49998V11.7727Z" fill="#666766"/>
</svg>
